<?xml version="1.0" encoding="UTF-8" standalone="no"?>
<svg
   xmlns:dc="http://purl.org/dc/elements/1.1/"
   xmlns:cc="http://creativecommons.org/ns#"
   xmlns:rdf="http://www.w3.org/1999/02/22-rdf-syntax-ns#"
   xmlns:svg="http://www.w3.org/2000/svg"
   xmlns="http://www.w3.org/2000/svg"
   xmlns:sodipodi="http://sodipodi.sourceforge.net/DTD/sodipodi-0.dtd"
   xmlns:inkscape="http://www.inkscape.org/namespaces/inkscape"
   width="100%"
   height="100%"
   viewBox="0 0 46.428654 15.156555"
   version="1.1"
   xml:space="preserve"
   style="fill-rule:evenodd;stroke-linejoin:round;stroke-miterlimit:1.41420996"
   id="svg2"
   inkscape:version="0.48.4 r9939"
   sodipodi:docname="logo.svg"><metadata
     id="metadata32"><rdf:RDF><cc:Work
         rdf:about=""><dc:format>image/svg+xml</dc:format><dc:type
           rdf:resource="http://purl.org/dc/dcmitype/StillImage" /><dc:title></dc:title></cc:Work></rdf:RDF></metadata><defs
     id="defs30" /><sodipodi:namedview
     pagecolor="#ffffff"
     bordercolor="#666666"
     borderopacity="1"
     objecttolerance="10"
     gridtolerance="10"
     guidetolerance="10"
     inkscape:pageopacity="0"
     inkscape:pageshadow="2"
     inkscape:window-width="1305"
     inkscape:window-height="744"
     id="namedview28"
     showgrid="false"
     fit-margin-top="0"
     fit-margin-left="0"
     fit-margin-right="0"
     fit-margin-bottom="0"
     inkscape:zoom="2.7692308"
     inkscape:cx="48.457987"
     inkscape:cy="-0.83525363"
     inkscape:window-x="61"
     inkscape:window-y="24"
     inkscape:window-maximized="1"
     inkscape:current-layer="svg2" /><g
     id="g4"
     transform="matrix(0.27259501,0,0,0.27259501,-0.04143444,-0.04007248)"><g
       id="g6"><g
         id="g3786"><path
           id="path8"
           style="fill:#ffffff"
           d="m 58.371,0.147 c -3.433,0.005 -6.866,1.309 -9.47,3.913 l 0.025,0.026 -6.919,6.918 c -5.217,5.217 -13.754,5.217 -18.971,0 -5.217,-5.218 -13.754,-5.218 -18.971,0 -2.605,2.604 -3.909,6.036 -3.913,9.47 l 0,0.031 c 0.004,3.433 1.308,6.865 3.913,9.471 l 9.485,9.485 14.403,14.403 c 1.251,1.25 2.897,1.878 4.546,1.884 l 0.046,0 c 1.648,-0.006 3.295,-0.634 4.546,-1.884 l 14.402,-14.403 9.486,-9.485 6.918,-6.919 -0.024,-0.026 C 73.089,17.815 73.089,9.277 67.873,4.06 65.267,1.455 61.836,0.151 58.402,0.147 l -0.031,0 z m -22.506,22.185 3.575,-3.575 6.893,-6.893 c 2.062,-2.062 4.837,-3.002 7.55,-2.821 2.276,0.152 4.507,1.092 6.236,2.821 1.729,1.729 2.669,3.96 2.821,6.236 0.181,2.712 -0.759,5.488 -2.821,7.55 l -6.893,6.893 -6.893,6.893 -10.466,10.465 c -1.826,1.827 -4.814,1.827 -6.64,10e-4 L 18.761,39.436 11.869,32.543 c -3.791,-3.791 -3.791,-9.995 0,-13.786 3.791,-3.791 9.994,-3.791 13.785,0 l 3.573,3.573 c 0.913,0.913 2.116,1.37 3.321,1.37 1.202,0 2.405,-0.456 3.317,-1.368 z"
           inkscape:connector-curvature="0" /><path
           id="path10"
           style="fill:#a8d3ff"
           d="m 6.708,13.596 c -3.791,3.791 -3.791,9.995 0,13.786 l 5.143,5.143 c -3.773,-3.793 -3.767,-9.983 0.018,-13.768 3.791,-3.791 9.993,-3.791 13.785,0 l 1.733,1.733 -6.893,-6.894 C 18.598,11.7 16.099,10.752 13.6,10.752 c -2.498,0 -4.997,0.948 -6.892,2.844 z"
           inkscape:connector-curvature="0" /><path
           id="path12"
           style="fill:#a8d3ff"
           d="m 51.493,6.703 -6.892,6.893 1.732,-1.732 c 3.792,-3.791 9.994,-3.791 13.786,0 3.785,3.786 3.79,9.976 0.017,13.769 l 5.143,-5.144 c 3.791,-3.791 3.791,-9.995 0,-13.786 C 63.384,4.808 60.885,3.86 58.387,3.86 c -2.499,0 -4.998,0.948 -6.894,2.843 z"
           inkscape:connector-curvature="0" /></g><g
         id="g3779"
         transform="translate(0,-6.716111)"><path
           inkscape:connector-curvature="0"
           id="path14"
           style="fill:#ffffff;fill-rule:nonzero"
           d="m 95.988,44.074111 c -0.222,0.717 -0.648,1.301 -1.277,1.752 -0.632,0.452 -1.358,0.678 -2.179,0.678 -0.788,0 -1.5,-0.226 -2.129,-0.678 -0.632,-0.451 -1.058,-1.035 -1.277,-1.752 l -5.586,-19.019 c -0.032,-0.063 -0.072,-0.172 -0.121,-0.328 -0.045,-0.156 -0.069,-0.265 -0.069,-0.327 0,-0.342 0.118,-0.639 0.353,-0.888 0.239,-0.249 0.53,-0.374 0.879,-0.374 0.661,0 1.071,0.295 1.228,0.887 l 5.728,19.301 c 0.158,0.498 0.49,0.748 0.994,0.748 0.599,0 0.948,-0.233 1.041,-0.702 l 5.776,-19.393 c 0.061,-0.218 0.203,-0.413 0.425,-0.584 0.22,-0.172 0.475,-0.257 0.758,-0.257 0.346,0 0.646,0.125 0.901,0.374 0.251,0.249 0.376,0.546 0.376,0.888 0,0.186 -0.015,0.327 -0.045,0.42 l -5.776,19.254 z" /><path
           inkscape:connector-curvature="0"
           id="path16"
           style="fill:#ffffff;fill-rule:nonzero"
           d="m 157.835,25.567111 c 0.222,-0.716 0.647,-1.301 1.276,-1.751 0.632,-0.452 1.358,-0.678 2.18,-0.678 0.788,0 1.5,0.226 2.129,0.678 0.632,0.45 1.058,1.035 1.277,1.751 l 5.585,19.02 c 0.032,0.062 0.072,0.17 0.12,0.328 0.046,0.154 0.071,0.264 0.071,0.327 0,0.342 -0.119,0.637 -0.354,0.887 -0.238,0.248 -0.531,0.375 -0.878,0.375 -0.661,0 -1.071,-0.297 -1.23,-0.889 l -5.727,-19.3 c -0.157,-0.498 -0.49,-0.748 -0.993,-0.748 -0.6,0 -0.948,0.234 -1.042,0.702 l -5.775,19.392 c -0.062,0.218 -0.203,0.414 -0.426,0.584 -0.22,0.173 -0.474,0.259 -0.758,0.259 -0.345,0 -0.644,-0.127 -0.899,-0.375 -0.252,-0.25 -0.377,-0.545 -0.377,-0.887 0,-0.187 0.015,-0.327 0.045,-0.421 l 5.776,-19.254 z" /><path
           inkscape:connector-curvature="0"
           id="path18"
           style="fill:#ffffff;fill-rule:nonzero"
           d="m 107.871,24.400111 c 0,-0.342 0.11,-0.639 0.332,-0.888 0.22,-0.249 0.519,-0.374 0.9,-0.374 0.345,0 0.645,0.125 0.897,0.374 0.254,0.249 0.38,0.546 0.38,0.888 l 0,20.889 c 0,0.342 -0.126,0.631 -0.38,0.864 -0.252,0.234 -0.552,0.351 -0.897,0.351 -0.381,0 -0.68,-0.117 -0.9,-0.351 -0.222,-0.233 -0.332,-0.522 -0.332,-0.864 l 0,-20.889 z" /><path
           inkscape:connector-curvature="0"
           id="path20"
           style="fill:#ffffff;fill-rule:nonzero"
           d="m 122.046,25.300111 -5.121,0 c -0.316,0 -0.6,-0.124 -0.855,-0.374 -0.251,-0.248 -0.377,-0.545 -0.377,-0.888 0,-0.311 0.126,-0.591 0.377,-0.84 0.255,-0.249 0.539,-0.375 0.855,-0.375 l 12.887,0 c 0.41,0 0.742,0.126 0.993,0.375 0.255,0.249 0.381,0.529 0.381,0.84 0,0.343 -0.126,0.64 -0.381,0.888 -0.251,0.25 -0.551,0.374 -0.896,0.374 l -5.399,0 0,19.989 c 0,0.312 -0.129,0.591 -0.381,0.84 -0.251,0.25 -0.535,0.375 -0.851,0.375 -0.348,0 -0.64,-0.125 -0.876,-0.375 -0.236,-0.249 -0.356,-0.528 -0.356,-0.84 l 0,-19.989 z" /><path
           inkscape:connector-curvature="0"
           id="path22"
           style="fill:#ffffff;fill-rule:nonzero"
           d="m 141.37,25.300111 -5.121,0 c -0.316,0 -0.6,-0.124 -0.854,-0.374 -0.252,-0.248 -0.378,-0.545 -0.378,-0.888 0,-0.311 0.126,-0.591 0.378,-0.84 0.254,-0.249 0.538,-0.375 0.854,-0.375 l 12.887,0 c 0.41,0 0.742,0.126 0.993,0.375 0.255,0.249 0.381,0.529 0.381,0.84 0,0.343 -0.126,0.64 -0.381,0.888 -0.251,0.25 -0.551,0.374 -0.896,0.374 l -5.399,0 0,19.989 c 0,0.312 -0.128,0.591 -0.381,0.84 -0.251,0.25 -0.535,0.375 -0.851,0.375 -0.348,0 -0.64,-0.125 -0.876,-0.375 -0.235,-0.249 -0.356,-0.528 -0.356,-0.84 l 0,-19.989 z" /></g></g></g></svg>