<?xml version="1.0" encoding="UTF-8" standalone="no"?>
<svg
   xmlns:dc="http://purl.org/dc/elements/1.1/"
   xmlns:cc="http://creativecommons.org/ns#"
   xmlns:rdf="http://www.w3.org/1999/02/22-rdf-syntax-ns#"
   xmlns:svg="http://www.w3.org/2000/svg"
   xmlns="http://www.w3.org/2000/svg"
   xmlns:sodipodi="http://sodipodi.sourceforge.net/DTD/sodipodi-0.dtd"
   xmlns:inkscape="http://www.inkscape.org/namespaces/inkscape"
   width="100%"
   height="100%"
   viewBox="0 0 5.3551992 4.1566657"
   version="1.1"
   xml:space="preserve"
   style="fill-rule:evenodd;stroke-linejoin:round;stroke-miterlimit:1.41420996"
   id="svg2"
   inkscape:version="0.48.4 r9939"
   sodipodi:docname="logo2.svg"><metadata
     id="metadata32"><rdf:RDF><cc:Work
         rdf:about=""><dc:format>image/svg+xml</dc:format><dc:type
           rdf:resource="http://purl.org/dc/dcmitype/StillImage" /><dc:title></dc:title></cc:Work></rdf:RDF></metadata><defs
     id="defs30" /><sodipodi:namedview
     pagecolor="#ffffff"
     bordercolor="#666666"
     borderopacity="1"
     objecttolerance="10"
     gridtolerance="10"
     guidetolerance="10"
     inkscape:pageopacity="0"
     inkscape:pageshadow="2"
     inkscape:window-width="1305"
     inkscape:window-height="744"
     id="namedview28"
     showgrid="false"
     fit-margin-top="0"
     fit-margin-left="0"
     fit-margin-right="0"
     fit-margin-bottom="0"
     inkscape:zoom="15.665135"
     inkscape:cx="4.2573641"
     inkscape:cy="4.8427145"
     inkscape:window-x="61"
     inkscape:window-y="24"
     inkscape:window-maximized="1"
     inkscape:current-layer="g4" /><g
     id="g4"
     transform="matrix(0.27259501,0,0,0.27259501,-7.1272339,-5.5400164)"><g
       id="g6"
       transform="matrix(0.27424872,0,0,0.27424872,26.104185,20.282934)"><g
         id="g3786"><g
           id="g4041"><path
             inkscape:connector-curvature="0"
             d="m 58.371,0.147 c -3.433,0.005 -6.866,1.309 -9.47,3.913 l 0.025,0.026 -6.919,6.918 c -5.217,5.217 -13.754,5.217 -18.971,0 -5.217,-5.218 -13.754,-5.218 -18.971,0 -2.605,2.604 -3.909,6.036 -3.913,9.47 l 0,0.031 c 0.004,3.433 1.308,6.865 3.913,9.471 l 9.485,9.485 14.403,14.403 c 1.251,1.25 2.897,1.878 4.546,1.884 l 0.046,0 c 1.648,-0.006 3.295,-0.634 4.546,-1.884 l 14.402,-14.403 9.486,-9.485 6.918,-6.919 -0.024,-0.026 C 73.089,17.815 73.089,9.277 67.873,4.06 65.267,1.455 61.836,0.151 58.402,0.147 l -0.031,0 z m -22.506,22.185 3.575,-3.575 6.893,-6.893 c 2.062,-2.062 4.837,-3.002 7.55,-2.821 2.276,0.152 4.507,1.092 6.236,2.821 1.729,1.729 2.669,3.96 2.821,6.236 0.181,2.712 -0.759,5.488 -2.821,7.55 l -6.893,6.893 -6.893,6.893 -10.466,10.465 c -1.826,1.827 -4.814,1.827 -6.64,10e-4 L 18.761,39.436 11.869,32.543 c -3.791,-3.791 -3.791,-9.995 0,-13.786 3.791,-3.791 9.994,-3.791 13.785,0 l 3.573,3.573 c 0.913,0.913 2.116,1.37 3.321,1.37 1.202,0 2.405,-0.456 3.317,-1.368 z"
             style="fill:#ffffff"
             id="path8" /><path
             inkscape:connector-curvature="0"
             d="m 6.708,13.596 c -3.791,3.791 -3.791,9.995 0,13.786 l 5.143,5.143 c -3.773,-3.793 -3.767,-9.983 0.018,-13.768 3.791,-3.791 9.993,-3.791 13.785,0 l 1.733,1.733 -6.893,-6.894 C 18.598,11.7 16.099,10.752 13.6,10.752 c -2.498,0 -4.997,0.948 -6.892,2.844 z"
             style="fill:#a8d3ff"
             id="path10" /><path
             inkscape:connector-curvature="0"
             d="m 51.493,6.703 -6.892,6.893 1.732,-1.732 c 3.792,-3.791 9.994,-3.791 13.786,0 3.785,3.786 3.79,9.976 0.017,13.769 l 5.143,-5.144 c 3.791,-3.791 3.791,-9.995 0,-13.786 C 63.384,4.808 60.885,3.86 58.387,3.86 c -2.499,0 -4.998,0.948 -6.894,2.843 z"
             style="fill:#a8d3ff"
             id="path12" /></g></g></g></g></svg>